<svg width="18" height="18" viewBox="0 0 18 18" fill="none" xmlns="http://www.w3.org/2000/svg">
<path fill-rule="evenodd" clip-rule="evenodd" d="M6.31694 11.6831C6.56102 11.9271 6.56102 12.3229 6.31694 12.5669L3.19194 15.6919C2.94786 15.936 2.55214 15.936 2.30806 15.6919C2.06398 15.4479 2.06398 15.0521 2.30806 14.8081L5.43306 11.6831C5.67714 11.439 6.07286 11.439 6.31694 11.6831Z" fill="#8FA0AF"/>
<path fill-rule="evenodd" clip-rule="evenodd" d="M11.0173 0.605779C11.1702 0.541758 11.3343 0.508789 11.5 0.508789C11.6658 0.508789 11.8299 0.541759 11.9828 0.605779C12.1348 0.669427 12.2727 0.7625 12.3886 0.879635L17.1203 5.61133C17.2375 5.72723 17.3305 5.86515 17.3942 6.01716C17.4582 6.17006 17.4912 6.33417 17.4912 6.49993C17.4912 6.6657 17.4582 6.8298 17.3942 6.9827C17.3305 7.13471 17.2375 7.27261 17.1203 7.3885L12.5543 11.9546C13.2842 13.944 12.1477 15.8154 11.5224 16.6419C11.4144 16.7853 11.2768 16.9038 11.1189 16.9893C10.9607 17.0749 10.7859 17.1254 10.6064 17.1372C10.4269 17.1491 10.247 17.1221 10.0789 17.0581C9.91177 16.9944 9.76029 16.8956 9.63463 16.7684L1.21624 8.35002L1.21515 8.34894C1.09093 8.22548 0.994033 8.07729 0.930751 7.91397C0.867285 7.75017 0.839054 7.57484 0.847899 7.3994C0.856745 7.22396 0.902469 7.05235 0.982089 6.89577C1.06171 6.73919 1.17344 6.60115 1.30999 6.49064C2.60274 5.446 3.87877 5.21139 4.84334 5.25446C5.32012 5.27575 5.71515 5.36424 5.99449 5.44894C6.00685 5.45269 6.01899 5.45643 6.03091 5.46016L10.6114 0.879694C10.7273 0.762531 10.8652 0.669437 11.0173 0.605779ZM16.2378 6.49656L11.5 1.7588L11.4967 1.7622L6.62947 6.62937C6.43997 6.81887 6.1509 6.86637 5.91088 6.74787L5.90306 6.74423C5.89393 6.74006 5.87728 6.73267 5.85359 6.72299C5.80614 6.7036 5.73094 6.67523 5.63178 6.64516C5.43285 6.58484 5.14185 6.51903 4.78758 6.50322C4.09011 6.47207 3.12375 6.63223 2.09631 7.46234L2.09822 7.46424L10.5239 15.8899L10.5251 15.8884C11.1683 15.0384 11.9745 13.5276 11.254 12.0929C11.1331 11.8521 11.1801 11.561 11.3706 11.3705L16.2412 6.49992L16.2378 6.49656Z" fill="#8FA0AF"/>
</svg>
