<svg width="27" height="28" viewBox="0 0 27 28" fill="none" xmlns="http://www.w3.org/2000/svg">
<path fill-rule="evenodd" clip-rule="evenodd" d="M1.99422 0.185314C2.4238 0.144691 2.85633 0.228183 3.23424 0.424676L3.23967 0.4275L25.6669 12.25L25.6697 12.2515C26.0006 12.4244 26.2764 12.6774 26.4686 12.9842C26.6614 13.292 26.7631 13.6427 26.7631 14C26.7631 14.3572 26.6614 14.708 26.4686 15.0157C26.2764 15.3226 26.0006 15.5756 25.6697 15.7485L25.6669 15.75L3.23425 27.5753C2.85634 27.7718 2.4238 27.8553 1.99422 27.8147C1.56464 27.774 1.1584 27.6112 0.829588 27.3479C0.50077 27.0846 0.264976 26.7332 0.153596 26.3406C0.0423503 25.9485 0.0604904 25.5338 0.205585 25.1517L4.42967 14L0.206113 2.84968C0.0608075 2.46735 0.0422914 2.05166 0.153596 1.65933C0.264976 1.26675 0.50077 0.915401 0.829588 0.652075C1.15841 0.38875 1.56464 0.225938 1.99422 0.185314ZM25.1525 13.125L24.6333 13.9975L2.20667 2.17529L2.20719 2.17668L6.42452 13.3106C6.60797 13.7539 6.60797 14.246 6.42452 14.6894L2.20666 25.8247L24.6333 14.0025L24.6381 14L25.1525 13.125Z" fill="#717171"/>
<path fill-rule="evenodd" clip-rule="evenodd" d="M4.50002 14C4.50002 13.4477 4.97571 13 5.56252 13H14.0625C14.6493 13 15.125 13.4477 15.125 14C15.125 14.5523 14.6493 15 14.0625 15H5.56252C4.97571 15 4.50002 14.5523 4.50002 14Z" fill="#717171"/>
</svg>
